<svg preserveAspectRatio="xMidYMid meet" viewBox="392.96 129.28 245.76 362.23999999999995" xmlns="http://www.w3.org/2000/svg" version="1.0" style="max-height: 500px" width="245.76" height="362.23999999999995">
<metadata>
Created by potrace 1.15, written by Peter Selinger 2001-2017
</metadata>
<g stroke="none" fill="#000000" transform="translate(0.000000,640.000000) scale(0.100000,-0.100000)">
<path d="M4970 5056 l-385 -31 -27 -104 c-76 -295 -118 -613 -125 -959 -9&#10;-437 29 -754 136 -1146 l29 -108 -31 6 c-18 4 -141 59 -274 122 -133 64 -245&#10;114 -250 111 -5 -3 -23 -25 -40 -50 l-32 -44 41 -39 c22 -21 85 -88 141 -149&#10;55 -60 172 -185 258 -276 87 -92 155 -170 151 -174 -4 -3 0 -5 8 -3 8 1 14 -2&#10;13 -9 -3 -13 220 -227 342 -328 229 -190 585 -369 698 -351 82 13 97 35 198&#10;287 104 262 235 571 366 864 156 347 167 405 76 405 -39 0 -97 -50 -213 -183&#10;-36 -42 -66 -74 -68 -72 -3 3 79 192 157 359 28 59 51 112 51 116 0 8 -100 74&#10;-104 68 -1 -2 -65 -77 -143 -168 -139 -163 -248 -275 -310 -318 -29 -20 -32&#10;-21 -31 -5 0 10 -8 81 -18 158 -14 109 -18 202 -18 425 1 361 21 593 95 1083&#10;27 178 30 214 20 248 -17 55 -59 81 -129 77 -61 -4 -60 -8 -37 122 8 47 15 88&#10;15 93 0 13 -166 5 -560 -27z"/>
<path d="M7215 4882 c-157 -402 -377 -914 -540 -1256 -36 -77 -64 -145 -61&#10;-151 2 -7 25 -24 51 -40 39 -22 49 -25 59 -14 7 8 54 62 105 122 92 106 125&#10;137 78 75 -35 -47 -89 -176 -95 -226 -3 -32 0 -47 13 -62 43 -48 85 -21 241&#10;151 129 142 225 232 264 244 11 3 20 11 20 18 0 7 3 8 10 1 13 -13 37 -160 51&#10;-315 16 -188 6 -650 -20 -899 -24 -221 -61 -490 -97 -693 -13 -76 -24 -142&#10;-24 -148 0 -8 29 -9 96 -4 93 7 95 6 83 -12 -17 -27 -3 -90 25 -118 14 -14 41&#10;-26 67 -30 50 -7 664 40 721 56 44 11 93 50 114 90 19 37 57 208 84 370 85&#10;528 77 1002 -25 1504 -19 93 -35 185 -35 205 0 99 68 106 240 26 64 -30 135&#10;-59 159 -65 110 -24 139 54 57 154 -19 23 -33 45 -29 48 6 7 -464 504 -597&#10;630 -257 245 -502 400 -766 486 -66 21 -131 41 -146 45 -26 6 -27 4 -103 -192z"/>
<path d="M1050 4357 c-63 -62 -204 -197 -313 -301 -341 -325 -512 -547 -627&#10;-813 -37 -86 -105 -301 -98 -309 2 -2 49 -22 103 -44 96 -40 132 -60 108 -60&#10;-12 0 -3 -52 15 -87 18 -33 61 -55 281 -143 342 -136 654 -269 961 -410 159&#10;-72 223 -91 263 -78 57 21 43 83 -37 156 -41 37 -45 45 -35 63 6 12 7 25 2 29&#10;-4 4 -60 51 -123 105 -63 54 -138 120 -166 147 l-52 50 15 43 c18 53 41 69&#10;135 94 168 46 291 56 678 56 408 0 525 -9 955 -73 138 -20 283 -37 323 -37 68&#10;0 76 2 97 27 13 15 26 44 30 66 8 52 -42 664 -60 729 -17 58 -55 96 -114 114&#10;-37 11 -39 14 -45 63 -3 28 -6 65 -6 82 l0 31 -112 27 c-171 40 -347 72 -534&#10;97 -147 20 -213 23 -504 24 -357 0 -417 -5 -719 -56 -96 -16 -176 -27 -179&#10;-24 -3 3 0 5 7 5 19 0 74 127 79 182 8 87 -47 114 -126 61 -47 -32 -131 -110&#10;-149 -139 -18 -28 25 71 97 220 33 70 59 133 57 140 -3 6 -24 25 -49 43 l-44&#10;31 -114 -111z"/>
<path d="M11388 4426 c-26 -17 -48 -34 -48 -39 0 -4 23 -57 50 -117 53 -115&#10;56 -125 40 -115 -6 4 -10 -11 -10 -37 0 -30 15 -74 49 -148 28 -58 46 -106 41&#10;-108 -4 -2 -52 8 -106 22 -534 135 -1061 158 -1629 71 -195 -30 -486 -93 -501&#10;-109 -9 -8 -85 -853 -84 -933 0 -7 10 -13 23 -13 20 0 23 -4 19 -29 -2 -16 5&#10;-49 16 -74 33 -74 56 -77 309 -38 498 75 723 94 1093 94 303 0 454 -12 622&#10;-50 40 -9 83 -16 95 -17 18 -1 19 -4 10 -21 -17 -32 -173 -181 -320 -305&#10;l-136 -114 20 -36 c11 -19 26 -43 33 -53 15 -19 12 -20 121 27 33 14 51 20 40&#10;13 -39 -24 -102 -95 -109 -122 -5 -18 -1 -35 10 -52 29 -45 76 -31 449 134&#10;354 157 592 257 826 348 239 93 269 117 269 211 0 31 -4 64 -10 74 -7 13 -6&#10;19 5 24 23 8 19 34 -25 168 -88 268 -219 481 -459 743 -76 83 -249 250 -541&#10;524 l-115 108 -47 -31z"/>
</g>
</svg>